<?xml version="1.0" encoding="utf-8"?>
<svg version="1.1" xmlns:xlink="http://www.w3.org/1999/xlink" width="96px" height="96px" xmlns="http://www.w3.org/2000/svg">
  <g transform="matrix(1 0 0 1 -37 -15 )">
    <path d="M 85 15  C 111.88 15  133 36.12  133 63  C 133 89.88  111.88 111  85 111  C 58.12 111  37 89.88  37 63  C 37 36.12  58.12 15  85 15  Z " fill-rule="nonzero" fill="#ffffff" stroke="none" />
    <path d="M 85 15.5  C 111.6 15.5  132.5 36.4  132.5 63  C 132.5 89.6  111.6 110.5  85 110.5  C 58.4 110.5  37.5 89.6  37.5 63  C 37.5 36.4  58.4 15.5  85 15.5  Z " stroke-width="1" stroke="#797979" fill="none" />
  </g>
</svg>