<?xml version="1.0" encoding="utf-8"?>
<svg version="1.1" xmlns:xlink="http://www.w3.org/1999/xlink" width="21px" height="15px" xmlns="http://www.w3.org/2000/svg">
  <g transform="matrix(1 0 0 1 -41 -9 )">
    <path d="M 11.494399185336 14.2096774193548  C 10.974032586558 14.7365591397849  10.642566191446 15  10.5 15  C 10.357433808554 15  10.025967413442 14.7365591397849  9.50560081466395 14.2096774193548  C 8.98523421588595 13.6827956989247  8.72505091649695 13.3476702508961  8.72505091649695 13.2043010752688  C 8.72505091649695 12.9749103942652  8.94781059063137 12.7813620071685  9.3933299389002 12.6236559139785  C 9.83884928716904 12.4659498207885  10.2077393075356 12.3870967741935  10.5 12.3870967741935  C 10.7922606924644 12.3870967741935  11.161150712831 12.4659498207885  11.6066700610998 12.6236559139785  C 12.0521894093686 12.7813620071685  12.2749490835031 12.9749103942652  12.2749490835031 13.2043010752688  C 12.2749490835031 13.3476702508961  12.0147657841141 13.6827956989247  11.494399185336 14.2096774193548  Z M 14.3867107942974 11.2795698924731  C 13.8485234215886 11.8172043010753  13.5152749490835 12.0860215053763  13.3869653767821 12.0860215053763  C 13.3727087576375 12.0860215053763  13.2301425661914 11.9964157706093  12.959266802444 11.8172043010753  C 12.6883910386965 11.6379928315412  12.3266293279022 11.4587813620072  11.8739816700611 11.2795698924731  C 11.42133401222 11.1003584229391  10.9633401221996 11.010752688172  10.5 11.010752688172  C 10.0366598778004 11.010752688172  9.57866598778004 11.1003584229391  9.1260183299389 11.2795698924731  C 8.67337067209776 11.4587813620072  8.31339103869654 11.6379928315412  8.04607942973523 11.8172043010753  C 7.77876782077393 11.9964157706093  7.63441955193483 12.0860215053763  7.61303462321792 12.0860215053763  C 7.4847250509165 12.0860215053763  7.15147657841141 11.8172043010753  6.61328920570265 11.2795698924731  C 6.07510183299389 10.741935483871  5.80600814663951 10.4086021505376  5.80600814663951 10.2795698924731  C 5.80600814663951 10.1863799283154  5.84164969450102 10.1039426523297  5.91293279022403 10.0322580645161  C 6.46894093686354 9.48028673835126  7.16751527494908 9.04659498207885  8.00865580448065 8.73118279569893  C 8.84979633401222 8.415770609319  9.68024439918534 8.25806451612903  10.5 8.25806451612903  C 11.3197556008147 8.25806451612903  12.1502036659878 8.415770609319  12.9913441955193 8.73118279569893  C 13.8324847250509 9.04659498207885  14.5310590631365 9.48028673835126  15.087067209776 10.0322580645161  C 15.158350305499 10.1039426523297  15.1939918533605 10.1863799283154  15.1939918533605 10.2795698924731  C 15.1939918533605 10.4086021505376  14.9248981670061 10.741935483871  14.3867107942974 11.2795698924731  Z M 17.2897148676171 8.35483870967742  C 16.7550916496945 8.89247311827957  16.4271894093686 9.16129032258065  16.3060081466395 9.16129032258065  C 16.2275967413442 9.16129032258065  16.1456211812627 9.13261648745519  16.0600814663951 9.0752688172043  C 15.0906313645621 8.32258064516129  14.1924643584521 7.76881720430108  13.3655804480652 7.41397849462366  C 12.5386965376782 7.05913978494624  11.5835030549898 6.88172043010753  10.5 6.88172043010753  C 9.89409368635438 6.88172043010753  9.28640529531568 6.96057347670251  8.67693482688391 7.11827956989247  C 8.06746435845214 7.27598566308244  7.53640529531568 7.46594982078853  7.08375763747454 7.68817204301075  C 6.6311099796334 7.91039426523297  6.2265784114053 8.13261648745519  5.87016293279022 8.35483870967742  C 5.51374745417515 8.57706093189964  5.23217922606925 8.76702508960573  5.02545824847251 8.9247311827957  C 4.81873727087576 9.08243727598566  4.70824847250509 9.16129032258065  4.69399185336049 9.16129032258065  C 4.57281059063136 9.16129032258065  4.2449083503055 8.89247311827957  3.71028513238289 8.35483870967742  C 3.17566191446029 7.81720430107527  2.90835030549898 7.48387096774194  2.90835030549898 7.35483870967742  C 2.90835030549898 7.26881720430107  2.94399185336049 7.18996415770609  3.0152749490835 7.11827956989247  C 3.95621181262729 6.17204301075269  5.09674134419552 5.43727598566308  6.43686354378819 4.91397849462366  C 7.77698574338086 4.39068100358423  9.13136456211813 4.12903225806452  10.5 4.12903225806452  C 11.8686354378819 4.12903225806452  13.2230142566191 4.39068100358423  14.5631364562118 4.91397849462366  C 15.9032586558045 5.43727598566308  17.0437881873727 6.17204301075269  17.9847250509165 7.11827956989247  C 18.0560081466395 7.18996415770609  18.091649694501 7.26881720430107  18.091649694501 7.35483870967742  C 18.091649694501 7.48387096774194  17.8243380855397 7.81720430107527  17.2897148676171 8.35483870967742  Z M 20.1927189409369 5.44086021505376  C 19.6545315682281 5.97849462365591  19.3248472505092 6.24731182795699  19.20366598778 6.24731182795699  C 19.1252545824847 6.24731182795699  19.0468431771894 6.21505376344086  18.9684317718941 6.1505376344086  C 17.6924643584521 5.02508960573477  16.3683808553972 4.17741935483871  14.9961812627291 3.60752688172043  C 13.6239816700611 3.03763440860215  12.1252545824847 2.75268817204301  10.5 2.75268817204301  C 8.87474541751527 2.75268817204301  7.3760183299389 3.03763440860215  6.00381873727088 3.60752688172043  C 4.63161914460285 4.17741935483871  3.30753564154786 5.02508960573477  2.03156822810591 6.1505376344086  C 1.95315682281059 6.21505376344086  1.87474541751528 6.24731182795699  1.79633401221996 6.24731182795699  C 1.67515274949084 6.24731182795699  1.34546843177189 5.97849462365591  0.807281059063136 5.44086021505376  C 0.269093686354379 4.90322580645161  0 4.56989247311828  0 4.44086021505376  C 0 4.34767025089606  0.0356415478615072 4.26523297491039  0.106924643584521 4.19354838709677  C 1.43991853360489 2.86021505376344  3.02596741344196 1.82795698924731  4.86507128309572 1.09677419354839  C 6.70417515274949 0.365591397849462  8.58248472505092 0  10.5 0  C 12.4175152749491 0  14.2958248472505 0.365591397849462  16.1349287169043 1.09677419354839  C 17.974032586558 1.82795698924731  19.5600814663951 2.86021505376344  20.8930753564155 4.19354838709677  C 20.9643584521385 4.26523297491039  21 4.34767025089606  21 4.44086021505376  C 21 4.56989247311828  20.7309063136456 4.90322580645161  20.1927189409369 5.44086021505376  Z " fill-rule="nonzero" fill="#000000" stroke="none" transform="matrix(1 0 0 1 41 9 )" />
  </g>
</svg>