<?xml version="1.0" encoding="utf-8"?>
<svg version="1.1" xmlns:xlink="http://www.w3.org/1999/xlink" width="17px" height="15px" xmlns="http://www.w3.org/2000/svg">
  <g transform="matrix(1 0 0 1 -17 -9 )">
    <path d="M 2.34319196428571 12.587890625  C 2.40011160714286 12.646484375  2.42857142857143 12.7213541666667  2.42857142857143 12.8125  L 2.42857142857143 14.6875  C 2.42857142857143 14.7786458333333  2.40011160714286 14.853515625  2.34319196428571 14.912109375  C 2.28627232142857 14.970703125  2.21354166666667 15  2.125 15  L 0.303571428571429 15  C 0.215029761904762 15  0.142299107142857 14.970703125  0.0853794642857143 14.912109375  C 0.0284598214285714 14.853515625  0 14.7786458333333  0 14.6875  L 0 12.8125  C 0 12.7213541666667  0.0284598214285714 12.646484375  0.0853794642857143 12.587890625  C 0.142299107142857 12.529296875  0.215029761904762 12.5  0.303571428571429 12.5  L 2.125 12.5  C 2.21354166666667 12.5  2.28627232142857 12.529296875  2.34319196428571 12.587890625  Z M 5.98604910714286 11.337890625  C 6.04296875 11.396484375  6.07142857142857 11.4713541666667  6.07142857142857 11.5625  L 6.07142857142857 14.6875  C 6.07142857142857 14.7786458333333  6.04296875 14.853515625  5.98604910714286 14.912109375  C 5.92912946428571 14.970703125  5.85639880952381 15  5.76785714285714 15  L 3.94642857142857 15  C 3.85788690476191 15  3.78515625 14.970703125  3.72823660714286 14.912109375  C 3.67131696428571 14.853515625  3.64285714285714 14.7786458333333  3.64285714285714 14.6875  L 3.64285714285714 11.5625  C 3.64285714285714 11.4713541666667  3.67131696428571 11.396484375  3.72823660714286 11.337890625  C 3.78515625 11.279296875  3.85788690476191 11.25  3.94642857142857 11.25  L 5.76785714285714 11.25  C 5.85639880952381 11.25  5.92912946428571 11.279296875  5.98604910714286 11.337890625  Z M 9.62890625 8.837890625  C 9.68582589285714 8.896484375  9.71428571428571 8.97135416666666  9.71428571428571 9.0625  L 9.71428571428571 14.6875  C 9.71428571428571 14.7786458333333  9.68582589285714 14.853515625  9.62890625 14.912109375  C 9.57198660714286 14.970703125  9.49925595238095 15  9.41071428571429 15  L 7.58928571428571 15  C 7.50074404761905 15  7.42801339285714 14.970703125  7.37109375 14.912109375  C 7.31417410714286 14.853515625  7.28571428571429 14.7786458333333  7.28571428571429 14.6875  L 7.28571428571429 9.0625  C 7.28571428571429 8.97135416666666  7.31417410714286 8.896484375  7.37109375 8.837890625  C 7.42801339285714 8.779296875  7.50074404761905 8.75  7.58928571428571 8.75  L 9.41071428571429 8.75  C 9.49925595238095 8.75  9.57198660714286 8.779296875  9.62890625 8.837890625  Z M 13.2717633928571 5.087890625  C 13.3286830357143 5.146484375  13.3571428571429 5.22135416666667  13.3571428571429 5.3125  L 13.3571428571429 14.6875  C 13.3571428571429 14.7786458333333  13.3286830357143 14.853515625  13.2717633928571 14.912109375  C 13.21484375 14.970703125  13.1421130952381 15  13.0535714285714 15  L 11.2321428571429 15  C 11.1436011904762 15  11.0708705357143 14.970703125  11.0139508928571 14.912109375  C 10.95703125 14.853515625  10.9285714285714 14.7786458333333  10.9285714285714 14.6875  L 10.9285714285714 5.3125  C 10.9285714285714 5.22135416666667  10.95703125 5.146484375  11.0139508928571 5.087890625  C 11.0708705357143 5.029296875  11.1436011904762 5  11.2321428571429 5  L 13.0535714285714 5  C 13.1421130952381 5  13.21484375 5.029296875  13.2717633928571 5.087890625  Z M 16.9146205357143 0.087890625  C 16.9715401785714 0.146484375  17 0.221354166666665  17 0.312500000000001  L 17 14.6875  C 17 14.7786458333333  16.9715401785714 14.853515625  16.9146205357143 14.912109375  C 16.8577008928571 14.970703125  16.7849702380952 15  16.6964285714286 15  L 14.875 15  C 14.7864583333333 15  14.7137276785714 14.970703125  14.6568080357143 14.912109375  C 14.5998883928571 14.853515625  14.5714285714286 14.7786458333333  14.5714285714286 14.6875  L 14.5714285714286 0.312500000000001  C 14.5714285714286 0.221354166666665  14.5998883928571 0.146484375  14.6568080357143 0.087890625  C 14.7137276785714 0.029296875  14.7864583333333 0  14.875 0  L 16.6964285714286 0  C 16.7849702380952 0  16.8577008928571 0.029296875  16.9146205357143 0.087890625  Z " fill-rule="nonzero" fill="#000000" stroke="none" transform="matrix(1 0 0 1 17 9 )" />
  </g>
</svg>